<mxfile host="app.diagrams.net" agent="Mozilla/5.0 (Windows NT 10.0; Win64; x64) AppleWebKit/537.36 (KHTML, like Gecko) Chrome/134.0.0.0 Safari/537.36" version="26.1.3">
  <diagram name="Page-1" id="74e2e168-ea6b-b213-b513-2b3c1d86103e">
    <mxGraphModel dx="1050" dy="557" grid="1" gridSize="10" guides="1" tooltips="1" connect="1" arrows="1" fold="1" page="1" pageScale="1" pageWidth="1100" pageHeight="850" background="none" math="0" shadow="0">
      <root>
        <mxCell id="0" />
        <mxCell id="1" parent="0" />
        <mxCell id="YSQlOUY1jOpPyFkPR3-t-69" value="&lt;font style=&quot;font-size: 18px;&quot;&gt;&lt;span style=&quot;background-color: transparent; color: light-dark(rgb(0, 0, 0), rgb(255, 255, 255));&quot;&gt;批复并发布&lt;/span&gt;检修计划&lt;/font&gt;" style="swimlane;html=1;childLayout=stackLayout;startSize=20;rounded=0;shadow=0;labelBackgroundColor=none;strokeWidth=1;fontFamily=Verdana;fontSize=8;align=center;" vertex="1" parent="1">
          <mxGeometry x="70" y="20" width="960" height="780" as="geometry" />
        </mxCell>
        <mxCell id="YSQlOUY1jOpPyFkPR3-t-70" value="接收请求" style="swimlane;html=1;startSize=20;" vertex="1" parent="YSQlOUY1jOpPyFkPR3-t-69">
          <mxGeometry y="20" width="160" height="760" as="geometry">
            <mxRectangle y="20" width="40" height="730" as="alternateBounds" />
          </mxGeometry>
        </mxCell>
        <mxCell id="YSQlOUY1jOpPyFkPR3-t-71" style="edgeStyle=orthogonalEdgeStyle;rounded=0;orthogonalLoop=1;jettySize=auto;html=1;exitX=0.5;exitY=1;exitDx=0;exitDy=0;entryX=0.5;entryY=0;entryDx=0;entryDy=0;" edge="1" parent="YSQlOUY1jOpPyFkPR3-t-70" source="YSQlOUY1jOpPyFkPR3-t-72" target="YSQlOUY1jOpPyFkPR3-t-73">
          <mxGeometry relative="1" as="geometry" />
        </mxCell>
        <mxCell id="YSQlOUY1jOpPyFkPR3-t-72" value="&lt;font style=&quot;font-size: 12px;&quot;&gt;开始&lt;/font&gt;" style="rounded=1;whiteSpace=wrap;html=1;shadow=0;labelBackgroundColor=none;strokeWidth=1;fontFamily=Verdana;fontSize=8;align=center;" vertex="1" parent="YSQlOUY1jOpPyFkPR3-t-70">
          <mxGeometry x="20" y="60" width="100" height="60" as="geometry" />
        </mxCell>
        <mxCell id="YSQlOUY1jOpPyFkPR3-t-73" value="&lt;font style=&quot;font-size: 12px;&quot;&gt;参数验证&lt;/font&gt;" style="rhombus;whiteSpace=wrap;html=1;rounded=0;shadow=0;labelBackgroundColor=none;strokeWidth=1;fontFamily=Verdana;fontSize=8;align=center;" vertex="1" parent="YSQlOUY1jOpPyFkPR3-t-70">
          <mxGeometry x="20" y="160" width="100" height="75" as="geometry" />
        </mxCell>
        <mxCell id="YSQlOUY1jOpPyFkPR3-t-74" style="edgeStyle=orthogonalEdgeStyle;rounded=0;orthogonalLoop=1;jettySize=auto;html=1;exitX=0.5;exitY=1;exitDx=0;exitDy=0;entryX=0.5;entryY=0;entryDx=0;entryDy=0;" edge="1" parent="YSQlOUY1jOpPyFkPR3-t-70" source="YSQlOUY1jOpPyFkPR3-t-73" target="YSQlOUY1jOpPyFkPR3-t-76">
          <mxGeometry relative="1" as="geometry">
            <mxPoint x="70" y="980" as="targetPoint" />
          </mxGeometry>
        </mxCell>
        <mxCell id="YSQlOUY1jOpPyFkPR3-t-75" value="否" style="edgeLabel;html=1;align=center;verticalAlign=middle;resizable=0;points=[];" vertex="1" connectable="0" parent="YSQlOUY1jOpPyFkPR3-t-74">
          <mxGeometry x="-0.24" y="-1" relative="1" as="geometry">
            <mxPoint as="offset" />
          </mxGeometry>
        </mxCell>
        <mxCell id="YSQlOUY1jOpPyFkPR3-t-76" value="&lt;span style=&quot;font-size: 12px;&quot;&gt;失败返回&lt;/span&gt;" style="whiteSpace=wrap;html=1;fontSize=8;fontFamily=Verdana;rounded=0;shadow=0;labelBackgroundColor=none;strokeWidth=1;" vertex="1" parent="YSQlOUY1jOpPyFkPR3-t-70">
          <mxGeometry x="20" y="680" width="100" height="60" as="geometry" />
        </mxCell>
        <mxCell id="YSQlOUY1jOpPyFkPR3-t-77" value="计算工作时间" style="swimlane;html=1;startSize=20;" vertex="1" parent="YSQlOUY1jOpPyFkPR3-t-69">
          <mxGeometry x="160" y="20" width="160" height="760" as="geometry" />
        </mxCell>
        <mxCell id="YSQlOUY1jOpPyFkPR3-t-78" style="edgeStyle=orthogonalEdgeStyle;rounded=0;orthogonalLoop=1;jettySize=auto;html=1;exitX=0.5;exitY=1;exitDx=0;exitDy=0;entryX=0.5;entryY=0;entryDx=0;entryDy=0;" edge="1" parent="YSQlOUY1jOpPyFkPR3-t-77">
          <mxGeometry relative="1" as="geometry">
            <mxPoint x="80" y="270" as="targetPoint" />
            <mxPoint x="80" y="227.5" as="sourcePoint" />
          </mxGeometry>
        </mxCell>
        <mxCell id="YSQlOUY1jOpPyFkPR3-t-137" value="是" style="edgeLabel;html=1;align=center;verticalAlign=middle;resizable=0;points=[];" vertex="1" connectable="0" parent="YSQlOUY1jOpPyFkPR3-t-78">
          <mxGeometry x="-0.0918" y="4" relative="1" as="geometry">
            <mxPoint x="-4" as="offset" />
          </mxGeometry>
        </mxCell>
        <mxCell id="YSQlOUY1jOpPyFkPR3-t-136" value="&lt;font style=&quot;font-size: 12px;&quot;&gt;检修计划&lt;/font&gt;&lt;div&gt;&lt;font style=&quot;font-size: 12px;&quot;&gt;是否停电&lt;/font&gt;&lt;/div&gt;" style="rhombus;whiteSpace=wrap;html=1;rounded=0;shadow=0;labelBackgroundColor=none;strokeWidth=1;fontFamily=Verdana;fontSize=8;align=center;" vertex="1" parent="YSQlOUY1jOpPyFkPR3-t-77">
          <mxGeometry x="30" y="160" width="100" height="75" as="geometry" />
        </mxCell>
        <mxCell id="YSQlOUY1jOpPyFkPR3-t-139" style="edgeStyle=orthogonalEdgeStyle;rounded=0;orthogonalLoop=1;jettySize=auto;html=1;" edge="1" parent="YSQlOUY1jOpPyFkPR3-t-77" source="YSQlOUY1jOpPyFkPR3-t-138">
          <mxGeometry relative="1" as="geometry">
            <mxPoint x="-90" y="307.5" as="targetPoint" />
          </mxGeometry>
        </mxCell>
        <mxCell id="YSQlOUY1jOpPyFkPR3-t-140" value="是" style="edgeLabel;html=1;align=center;verticalAlign=middle;resizable=0;points=[];" vertex="1" connectable="0" parent="YSQlOUY1jOpPyFkPR3-t-139">
          <mxGeometry x="-0.6957" relative="1" as="geometry">
            <mxPoint as="offset" />
          </mxGeometry>
        </mxCell>
        <mxCell id="YSQlOUY1jOpPyFkPR3-t-142" style="edgeStyle=orthogonalEdgeStyle;rounded=0;orthogonalLoop=1;jettySize=auto;html=1;exitX=0.5;exitY=1;exitDx=0;exitDy=0;entryX=0.5;entryY=0;entryDx=0;entryDy=0;" edge="1" parent="YSQlOUY1jOpPyFkPR3-t-77" source="YSQlOUY1jOpPyFkPR3-t-138" target="YSQlOUY1jOpPyFkPR3-t-141">
          <mxGeometry relative="1" as="geometry" />
        </mxCell>
        <mxCell id="YSQlOUY1jOpPyFkPR3-t-143" value="否" style="edgeLabel;html=1;align=center;verticalAlign=middle;resizable=0;points=[];" vertex="1" connectable="0" parent="YSQlOUY1jOpPyFkPR3-t-142">
          <mxGeometry x="0.0571" y="-1" relative="1" as="geometry">
            <mxPoint as="offset" />
          </mxGeometry>
        </mxCell>
        <mxCell id="YSQlOUY1jOpPyFkPR3-t-147" style="edgeStyle=orthogonalEdgeStyle;rounded=0;orthogonalLoop=1;jettySize=auto;html=1;exitX=1;exitY=0.5;exitDx=0;exitDy=0;" edge="1" parent="YSQlOUY1jOpPyFkPR3-t-77" source="YSQlOUY1jOpPyFkPR3-t-138">
          <mxGeometry relative="1" as="geometry">
            <mxPoint x="150" y="307.66666666666674" as="targetPoint" />
          </mxGeometry>
        </mxCell>
        <mxCell id="YSQlOUY1jOpPyFkPR3-t-148" value="否" style="edgeLabel;html=1;align=center;verticalAlign=middle;resizable=0;points=[];" vertex="1" connectable="0" parent="YSQlOUY1jOpPyFkPR3-t-147">
          <mxGeometry x="-0.3388" relative="1" as="geometry">
            <mxPoint as="offset" />
          </mxGeometry>
        </mxCell>
        <mxCell id="YSQlOUY1jOpPyFkPR3-t-138" value="&lt;span style=&quot;font-size: 12px;&quot;&gt;停电开始时间&lt;/span&gt;&lt;div&gt;&lt;span style=&quot;font-size: 12px;&quot;&gt;大于&lt;/span&gt;&lt;/div&gt;&lt;div&gt;&lt;span style=&quot;font-size: 12px;&quot;&gt;结束时间&lt;/span&gt;&lt;/div&gt;" style="rhombus;whiteSpace=wrap;html=1;rounded=0;shadow=0;labelBackgroundColor=none;strokeWidth=1;fontFamily=Verdana;fontSize=8;align=center;" vertex="1" parent="YSQlOUY1jOpPyFkPR3-t-77">
          <mxGeometry x="30" y="270" width="100" height="75" as="geometry" />
        </mxCell>
        <mxCell id="YSQlOUY1jOpPyFkPR3-t-145" style="edgeStyle=orthogonalEdgeStyle;rounded=0;orthogonalLoop=1;jettySize=auto;html=1;exitX=0.5;exitY=1;exitDx=0;exitDy=0;entryX=0.5;entryY=0;entryDx=0;entryDy=0;" edge="1" parent="YSQlOUY1jOpPyFkPR3-t-77" source="YSQlOUY1jOpPyFkPR3-t-141" target="YSQlOUY1jOpPyFkPR3-t-144">
          <mxGeometry relative="1" as="geometry" />
        </mxCell>
        <mxCell id="YSQlOUY1jOpPyFkPR3-t-146" value="是" style="edgeLabel;html=1;align=center;verticalAlign=middle;resizable=0;points=[];" vertex="1" connectable="0" parent="YSQlOUY1jOpPyFkPR3-t-145">
          <mxGeometry x="-0.2762" y="-1" relative="1" as="geometry">
            <mxPoint as="offset" />
          </mxGeometry>
        </mxCell>
        <mxCell id="YSQlOUY1jOpPyFkPR3-t-149" style="edgeStyle=orthogonalEdgeStyle;rounded=0;orthogonalLoop=1;jettySize=auto;html=1;exitX=1;exitY=0.5;exitDx=0;exitDy=0;" edge="1" parent="YSQlOUY1jOpPyFkPR3-t-77" source="YSQlOUY1jOpPyFkPR3-t-141">
          <mxGeometry relative="1" as="geometry">
            <mxPoint x="150" y="417.66666666666674" as="targetPoint" />
          </mxGeometry>
        </mxCell>
        <mxCell id="YSQlOUY1jOpPyFkPR3-t-151" value="否" style="edgeLabel;html=1;align=center;verticalAlign=middle;resizable=0;points=[];" vertex="1" connectable="0" parent="YSQlOUY1jOpPyFkPR3-t-149">
          <mxGeometry x="-0.5041" y="-1" relative="1" as="geometry">
            <mxPoint as="offset" />
          </mxGeometry>
        </mxCell>
        <mxCell id="YSQlOUY1jOpPyFkPR3-t-141" value="&lt;span style=&quot;font-size: 12px;&quot;&gt;是否要更新&lt;/span&gt;&lt;div&gt;&lt;span style=&quot;font-size: 12px;&quot;&gt;工作时间&lt;/span&gt;&lt;/div&gt;" style="rhombus;whiteSpace=wrap;html=1;rounded=0;shadow=0;labelBackgroundColor=none;strokeWidth=1;fontFamily=Verdana;fontSize=8;align=center;" vertex="1" parent="YSQlOUY1jOpPyFkPR3-t-77">
          <mxGeometry x="30" y="380" width="100" height="75" as="geometry" />
        </mxCell>
        <mxCell id="YSQlOUY1jOpPyFkPR3-t-144" value="&lt;span style=&quot;font-size: 12px;&quot;&gt;重启计算&lt;/span&gt;&lt;div&gt;&lt;span style=&quot;font-size: 12px;&quot;&gt;工作时间&lt;/span&gt;&lt;/div&gt;" style="whiteSpace=wrap;html=1;fontSize=8;fontFamily=Verdana;rounded=0;shadow=0;labelBackgroundColor=none;strokeWidth=1;" vertex="1" parent="YSQlOUY1jOpPyFkPR3-t-77">
          <mxGeometry x="30" y="490" width="100" height="60" as="geometry" />
        </mxCell>
        <mxCell id="YSQlOUY1jOpPyFkPR3-t-90" value="更新检修计划" style="swimlane;html=1;startSize=20;" vertex="1" parent="YSQlOUY1jOpPyFkPR3-t-69">
          <mxGeometry x="320" y="20" width="160" height="760" as="geometry" />
        </mxCell>
        <mxCell id="YSQlOUY1jOpPyFkPR3-t-92" value="&lt;span style=&quot;font-size: 12px;&quot;&gt;更新检修计划&lt;/span&gt;" style="whiteSpace=wrap;html=1;fontSize=8;fontFamily=Verdana;rounded=0;shadow=0;labelBackgroundColor=none;strokeWidth=1;" vertex="1" parent="YSQlOUY1jOpPyFkPR3-t-90">
          <mxGeometry x="30" y="270" width="100" height="60" as="geometry" />
        </mxCell>
        <mxCell id="YSQlOUY1jOpPyFkPR3-t-95" style="edgeStyle=orthogonalEdgeStyle;rounded=0;orthogonalLoop=1;jettySize=auto;html=1;exitX=0.5;exitY=1;exitDx=0;exitDy=0;" edge="1" parent="YSQlOUY1jOpPyFkPR3-t-90" source="YSQlOUY1jOpPyFkPR3-t-96" target="YSQlOUY1jOpPyFkPR3-t-92">
          <mxGeometry relative="1" as="geometry" />
        </mxCell>
        <mxCell id="YSQlOUY1jOpPyFkPR3-t-96" value="&lt;span style=&quot;font-size: 12px;&quot;&gt;设置检修计划字段需要更新的值&lt;/span&gt;" style="whiteSpace=wrap;html=1;fontSize=8;fontFamily=Verdana;rounded=0;shadow=0;labelBackgroundColor=none;strokeWidth=1;" vertex="1" parent="YSQlOUY1jOpPyFkPR3-t-90">
          <mxGeometry x="30" y="170" width="100" height="60" as="geometry" />
        </mxCell>
        <mxCell id="YSQlOUY1jOpPyFkPR3-t-107" value="发布计划" style="swimlane;html=1;startSize=20;" vertex="1" parent="YSQlOUY1jOpPyFkPR3-t-69">
          <mxGeometry x="480" y="20" width="160" height="760" as="geometry" />
        </mxCell>
        <mxCell id="YSQlOUY1jOpPyFkPR3-t-108" style="edgeStyle=orthogonalEdgeStyle;rounded=0;orthogonalLoop=1;jettySize=auto;html=1;exitX=0.5;exitY=1;exitDx=0;exitDy=0;entryX=0.5;entryY=0;entryDx=0;entryDy=0;" edge="1" parent="YSQlOUY1jOpPyFkPR3-t-107" target="YSQlOUY1jOpPyFkPR3-t-156">
          <mxGeometry relative="1" as="geometry">
            <mxPoint x="80" y="330" as="sourcePoint" />
            <mxPoint x="80" y="370" as="targetPoint" />
          </mxGeometry>
        </mxCell>
        <mxCell id="YSQlOUY1jOpPyFkPR3-t-158" value="否" style="edgeLabel;html=1;align=center;verticalAlign=middle;resizable=0;points=[];" vertex="1" connectable="0" parent="YSQlOUY1jOpPyFkPR3-t-108">
          <mxGeometry x="-0.0894" relative="1" as="geometry">
            <mxPoint as="offset" />
          </mxGeometry>
        </mxCell>
        <mxCell id="YSQlOUY1jOpPyFkPR3-t-111" style="edgeStyle=orthogonalEdgeStyle;rounded=0;orthogonalLoop=1;jettySize=auto;html=1;exitX=0.5;exitY=1;exitDx=0;exitDy=0;" edge="1" parent="YSQlOUY1jOpPyFkPR3-t-107">
          <mxGeometry relative="1" as="geometry">
            <mxPoint x="80" y="230" as="sourcePoint" />
            <mxPoint x="80" y="270" as="targetPoint" />
          </mxGeometry>
        </mxCell>
        <mxCell id="YSQlOUY1jOpPyFkPR3-t-154" value="是" style="edgeLabel;html=1;align=center;verticalAlign=middle;resizable=0;points=[];" vertex="1" connectable="0" parent="YSQlOUY1jOpPyFkPR3-t-111">
          <mxGeometry x="-0.1585" y="2" relative="1" as="geometry">
            <mxPoint as="offset" />
          </mxGeometry>
        </mxCell>
        <mxCell id="YSQlOUY1jOpPyFkPR3-t-153" value="&lt;span style=&quot;font-size: 12px;&quot;&gt;是否发布&lt;/span&gt;&lt;div&gt;&lt;span style=&quot;font-size: 12px;&quot;&gt;检修计划&lt;/span&gt;&lt;/div&gt;" style="rhombus;whiteSpace=wrap;html=1;rounded=0;shadow=0;labelBackgroundColor=none;strokeWidth=1;fontFamily=Verdana;fontSize=8;align=center;" vertex="1" parent="YSQlOUY1jOpPyFkPR3-t-107">
          <mxGeometry x="30" y="160" width="100" height="75" as="geometry" />
        </mxCell>
        <mxCell id="YSQlOUY1jOpPyFkPR3-t-155" value="&lt;span style=&quot;font-size: 12px;&quot;&gt;是否为&lt;/span&gt;&lt;div&gt;&lt;span style=&quot;font-size: 12px;&quot;&gt;年、月检修计划&lt;/span&gt;&lt;/div&gt;" style="rhombus;whiteSpace=wrap;html=1;rounded=0;shadow=0;labelBackgroundColor=none;strokeWidth=1;fontFamily=Verdana;fontSize=8;align=center;" vertex="1" parent="YSQlOUY1jOpPyFkPR3-t-107">
          <mxGeometry x="30" y="270" width="100" height="75" as="geometry" />
        </mxCell>
        <mxCell id="YSQlOUY1jOpPyFkPR3-t-160" style="edgeStyle=orthogonalEdgeStyle;rounded=0;orthogonalLoop=1;jettySize=auto;html=1;exitX=0.5;exitY=1;exitDx=0;exitDy=0;entryX=0.5;entryY=0;entryDx=0;entryDy=0;" edge="1" parent="YSQlOUY1jOpPyFkPR3-t-107" source="YSQlOUY1jOpPyFkPR3-t-156" target="YSQlOUY1jOpPyFkPR3-t-159">
          <mxGeometry relative="1" as="geometry" />
        </mxCell>
        <mxCell id="YSQlOUY1jOpPyFkPR3-t-165" value="是" style="edgeLabel;html=1;align=center;verticalAlign=middle;resizable=0;points=[];" vertex="1" connectable="0" parent="YSQlOUY1jOpPyFkPR3-t-160">
          <mxGeometry x="-0.1429" y="-1" relative="1" as="geometry">
            <mxPoint as="offset" />
          </mxGeometry>
        </mxCell>
        <mxCell id="YSQlOUY1jOpPyFkPR3-t-156" value="&lt;span style=&quot;font-size: 12px;&quot;&gt;检修计划&lt;/span&gt;&lt;div&gt;&lt;span style=&quot;font-size: 12px;&quot;&gt;是否&lt;/span&gt;&lt;span style=&quot;font-size: 12px; background-color: transparent; color: light-dark(rgb(0, 0, 0), rgb(255, 255, 255));&quot;&gt;停电&lt;/span&gt;&lt;/div&gt;" style="rhombus;whiteSpace=wrap;html=1;rounded=0;shadow=0;labelBackgroundColor=none;strokeWidth=1;fontFamily=Verdana;fontSize=8;align=center;" vertex="1" parent="YSQlOUY1jOpPyFkPR3-t-107">
          <mxGeometry x="30" y="380" width="100" height="75" as="geometry" />
        </mxCell>
        <mxCell id="YSQlOUY1jOpPyFkPR3-t-162" style="edgeStyle=orthogonalEdgeStyle;rounded=0;orthogonalLoop=1;jettySize=auto;html=1;exitX=0.5;exitY=1;exitDx=0;exitDy=0;" edge="1" parent="YSQlOUY1jOpPyFkPR3-t-107" source="YSQlOUY1jOpPyFkPR3-t-159" target="YSQlOUY1jOpPyFkPR3-t-161">
          <mxGeometry relative="1" as="geometry" />
        </mxCell>
        <mxCell id="YSQlOUY1jOpPyFkPR3-t-159" value="&lt;span style=&quot;font-size: 12px;&quot;&gt;创建停电申请单&lt;/span&gt;&lt;div&gt;&lt;span style=&quot;font-size: 12px;&quot;&gt;并保存&lt;/span&gt;&lt;/div&gt;" style="whiteSpace=wrap;html=1;fontSize=8;fontFamily=Verdana;rounded=0;shadow=0;labelBackgroundColor=none;strokeWidth=1;" vertex="1" parent="YSQlOUY1jOpPyFkPR3-t-107">
          <mxGeometry x="30" y="490" width="100" height="60" as="geometry" />
        </mxCell>
        <mxCell id="YSQlOUY1jOpPyFkPR3-t-168" style="edgeStyle=orthogonalEdgeStyle;rounded=0;orthogonalLoop=1;jettySize=auto;html=1;exitX=0.5;exitY=1;exitDx=0;exitDy=0;" edge="1" parent="YSQlOUY1jOpPyFkPR3-t-107" source="YSQlOUY1jOpPyFkPR3-t-161">
          <mxGeometry relative="1" as="geometry">
            <mxPoint x="400" y="170" as="targetPoint" />
            <Array as="points">
              <mxPoint x="80" y="690" />
              <mxPoint x="310" y="690" />
              <mxPoint x="310" y="110" />
              <mxPoint x="400" y="110" />
            </Array>
          </mxGeometry>
        </mxCell>
        <mxCell id="YSQlOUY1jOpPyFkPR3-t-161" value="&lt;span style=&quot;font-size: 12px;&quot;&gt;保存&lt;/span&gt;&lt;div&gt;&lt;span style=&quot;font-size: 12px;&quot;&gt;检修计划和停电申请单关联表&lt;/span&gt;&lt;/div&gt;" style="whiteSpace=wrap;html=1;fontSize=8;fontFamily=Verdana;rounded=0;shadow=0;labelBackgroundColor=none;strokeWidth=1;" vertex="1" parent="YSQlOUY1jOpPyFkPR3-t-107">
          <mxGeometry x="30" y="590" width="100" height="60" as="geometry" />
        </mxCell>
        <mxCell id="YSQlOUY1jOpPyFkPR3-t-113" value="下级检修计划创建" style="swimlane;html=1;startSize=20;" vertex="1" parent="YSQlOUY1jOpPyFkPR3-t-69">
          <mxGeometry x="640" y="20" width="160" height="760" as="geometry" />
        </mxCell>
        <mxCell id="YSQlOUY1jOpPyFkPR3-t-114" style="edgeStyle=orthogonalEdgeStyle;rounded=0;orthogonalLoop=1;jettySize=auto;html=1;exitX=0.5;exitY=1;exitDx=0;exitDy=0;entryX=0.5;entryY=0;entryDx=0;entryDy=0;" edge="1" parent="YSQlOUY1jOpPyFkPR3-t-113" source="YSQlOUY1jOpPyFkPR3-t-115" target="YSQlOUY1jOpPyFkPR3-t-117">
          <mxGeometry relative="1" as="geometry" />
        </mxCell>
        <mxCell id="YSQlOUY1jOpPyFkPR3-t-115" value="&lt;span style=&quot;font-size: 12px;&quot;&gt;构建新建检修计划的参数&lt;/span&gt;" style="whiteSpace=wrap;html=1;fontSize=8;fontFamily=Verdana;rounded=0;shadow=0;labelBackgroundColor=none;strokeWidth=1;" vertex="1" parent="YSQlOUY1jOpPyFkPR3-t-113">
          <mxGeometry x="30" y="170" width="100" height="60" as="geometry" />
        </mxCell>
        <mxCell id="YSQlOUY1jOpPyFkPR3-t-117" value="&lt;span style=&quot;font-size: 12px;&quot;&gt;创建年、月计划的下级检修计划&lt;/span&gt;" style="whiteSpace=wrap;html=1;fontSize=8;fontFamily=Verdana;rounded=0;shadow=0;labelBackgroundColor=none;strokeWidth=1;" vertex="1" parent="YSQlOUY1jOpPyFkPR3-t-113">
          <mxGeometry x="30" y="270" width="100" height="60" as="geometry" />
        </mxCell>
        <mxCell id="YSQlOUY1jOpPyFkPR3-t-121" value="" style="edgeStyle=orthogonalEdgeStyle;rounded=0;orthogonalLoop=1;jettySize=auto;html=1;" edge="1" parent="YSQlOUY1jOpPyFkPR3-t-69" source="YSQlOUY1jOpPyFkPR3-t-73">
          <mxGeometry relative="1" as="geometry">
            <mxPoint x="190" y="217.5" as="targetPoint" />
          </mxGeometry>
        </mxCell>
        <mxCell id="YSQlOUY1jOpPyFkPR3-t-122" value="是" style="edgeLabel;html=1;align=center;verticalAlign=middle;resizable=0;points=[];" vertex="1" connectable="0" parent="YSQlOUY1jOpPyFkPR3-t-121">
          <mxGeometry x="-0.5771" relative="1" as="geometry">
            <mxPoint as="offset" />
          </mxGeometry>
        </mxCell>
        <mxCell id="YSQlOUY1jOpPyFkPR3-t-123" value="数据完善并保存" style="swimlane;html=1;startSize=20;" vertex="1" parent="YSQlOUY1jOpPyFkPR3-t-69">
          <mxGeometry x="800" y="20" width="160" height="760" as="geometry" />
        </mxCell>
        <mxCell id="YSQlOUY1jOpPyFkPR3-t-124" style="edgeStyle=orthogonalEdgeStyle;rounded=0;orthogonalLoop=1;jettySize=auto;html=1;exitX=0.5;exitY=1;exitDx=0;exitDy=0;entryX=0.5;entryY=0;entryDx=0;entryDy=0;" edge="1" parent="YSQlOUY1jOpPyFkPR3-t-123" source="YSQlOUY1jOpPyFkPR3-t-125" target="YSQlOUY1jOpPyFkPR3-t-127">
          <mxGeometry relative="1" as="geometry" />
        </mxCell>
        <mxCell id="YSQlOUY1jOpPyFkPR3-t-125" value="&lt;div&gt;&lt;span style=&quot;font-size: 12px;&quot;&gt;构建&lt;/span&gt;&lt;/div&gt;&lt;div&gt;&lt;span style=&quot;font-size: 12px;&quot;&gt;检修计划变更数据&lt;/span&gt;&lt;/div&gt;" style="whiteSpace=wrap;html=1;fontSize=8;fontFamily=Verdana;rounded=0;shadow=0;labelBackgroundColor=none;strokeWidth=1;" vertex="1" parent="YSQlOUY1jOpPyFkPR3-t-123">
          <mxGeometry x="30" y="170" width="100" height="60" as="geometry" />
        </mxCell>
        <mxCell id="YSQlOUY1jOpPyFkPR3-t-127" value="&lt;span style=&quot;font-size: 12px;&quot;&gt;保存&lt;/span&gt;&lt;div&gt;&lt;span style=&quot;font-size: 12px;&quot;&gt;检修计划变更数据&lt;/span&gt;&lt;/div&gt;" style="whiteSpace=wrap;html=1;fontSize=8;fontFamily=Verdana;rounded=0;shadow=0;labelBackgroundColor=none;strokeWidth=1;" vertex="1" parent="YSQlOUY1jOpPyFkPR3-t-123">
          <mxGeometry x="30" y="270" width="100" height="60" as="geometry" />
        </mxCell>
        <mxCell id="YSQlOUY1jOpPyFkPR3-t-129" style="edgeStyle=orthogonalEdgeStyle;rounded=0;orthogonalLoop=1;jettySize=auto;html=1;exitX=0.5;exitY=1;exitDx=0;exitDy=0;entryX=0.5;entryY=0;entryDx=0;entryDy=0;" edge="1" parent="YSQlOUY1jOpPyFkPR3-t-123" source="YSQlOUY1jOpPyFkPR3-t-127" target="YSQlOUY1jOpPyFkPR3-t-130">
          <mxGeometry relative="1" as="geometry">
            <mxPoint x="80" y="800" as="targetPoint" />
            <mxPoint x="80" y="420" as="sourcePoint" />
          </mxGeometry>
        </mxCell>
        <mxCell id="YSQlOUY1jOpPyFkPR3-t-130" value="&lt;span style=&quot;font-size: 12px;&quot;&gt;成功返回&lt;/span&gt;" style="whiteSpace=wrap;html=1;fontSize=8;fontFamily=Verdana;rounded=0;shadow=0;labelBackgroundColor=none;strokeWidth=1;" vertex="1" parent="YSQlOUY1jOpPyFkPR3-t-123">
          <mxGeometry x="30" y="680" width="100" height="60" as="geometry" />
        </mxCell>
        <mxCell id="YSQlOUY1jOpPyFkPR3-t-132" style="edgeStyle=orthogonalEdgeStyle;rounded=0;orthogonalLoop=1;jettySize=auto;html=1;exitX=0.5;exitY=1;exitDx=0;exitDy=0;entryX=0.5;entryY=0;entryDx=0;entryDy=0;" edge="1" parent="YSQlOUY1jOpPyFkPR3-t-69" source="YSQlOUY1jOpPyFkPR3-t-144" target="YSQlOUY1jOpPyFkPR3-t-96">
          <mxGeometry relative="1" as="geometry">
            <mxPoint x="400" y="260" as="targetPoint" />
            <Array as="points">
              <mxPoint x="240" y="610" />
              <mxPoint x="310" y="610" />
              <mxPoint x="310" y="150" />
              <mxPoint x="400" y="150" />
            </Array>
            <mxPoint x="240" y="585" as="sourcePoint" />
          </mxGeometry>
        </mxCell>
        <mxCell id="YSQlOUY1jOpPyFkPR3-t-134" style="edgeStyle=orthogonalEdgeStyle;rounded=0;orthogonalLoop=1;jettySize=auto;html=1;exitX=0.5;exitY=1;exitDx=0;exitDy=0;" edge="1" parent="YSQlOUY1jOpPyFkPR3-t-69" source="YSQlOUY1jOpPyFkPR3-t-92">
          <mxGeometry relative="1" as="geometry">
            <mxPoint x="400" y="450" as="sourcePoint" />
            <Array as="points">
              <mxPoint x="400" y="390" />
              <mxPoint x="470" y="390" />
              <mxPoint x="470" y="150" />
              <mxPoint x="560" y="150" />
            </Array>
            <mxPoint x="560" y="180" as="targetPoint" />
          </mxGeometry>
        </mxCell>
        <mxCell id="YSQlOUY1jOpPyFkPR3-t-135" style="edgeStyle=orthogonalEdgeStyle;rounded=0;orthogonalLoop=1;jettySize=auto;html=1;exitX=0.5;exitY=1;exitDx=0;exitDy=0;entryX=0.5;entryY=0;entryDx=0;entryDy=0;" edge="1" parent="YSQlOUY1jOpPyFkPR3-t-69" source="YSQlOUY1jOpPyFkPR3-t-117" target="YSQlOUY1jOpPyFkPR3-t-125">
          <mxGeometry relative="1" as="geometry">
            <Array as="points">
              <mxPoint x="720" y="390" />
              <mxPoint x="790" y="390" />
              <mxPoint x="790" y="130" />
              <mxPoint x="880" y="130" />
            </Array>
            <mxPoint x="720" y="540" as="sourcePoint" />
          </mxGeometry>
        </mxCell>
        <mxCell id="YSQlOUY1jOpPyFkPR3-t-163" style="edgeStyle=orthogonalEdgeStyle;rounded=0;orthogonalLoop=1;jettySize=auto;html=1;exitX=1;exitY=0.5;exitDx=0;exitDy=0;entryX=0.5;entryY=0;entryDx=0;entryDy=0;" edge="1" parent="YSQlOUY1jOpPyFkPR3-t-69" source="YSQlOUY1jOpPyFkPR3-t-155" target="YSQlOUY1jOpPyFkPR3-t-115">
          <mxGeometry relative="1" as="geometry">
            <Array as="points">
              <mxPoint x="630" y="328" />
              <mxPoint x="630" y="150" />
              <mxPoint x="720" y="150" />
            </Array>
          </mxGeometry>
        </mxCell>
        <mxCell id="YSQlOUY1jOpPyFkPR3-t-164" value="是" style="edgeLabel;html=1;align=center;verticalAlign=middle;resizable=0;points=[];" vertex="1" connectable="0" parent="YSQlOUY1jOpPyFkPR3-t-163">
          <mxGeometry x="-0.9499" y="-1" relative="1" as="geometry">
            <mxPoint y="1" as="offset" />
          </mxGeometry>
        </mxCell>
        <mxCell id="YSQlOUY1jOpPyFkPR3-t-166" style="edgeStyle=orthogonalEdgeStyle;rounded=0;orthogonalLoop=1;jettySize=auto;html=1;exitX=1;exitY=0.5;exitDx=0;exitDy=0;entryX=0.5;entryY=0;entryDx=0;entryDy=0;" edge="1" parent="YSQlOUY1jOpPyFkPR3-t-69" source="YSQlOUY1jOpPyFkPR3-t-156" target="YSQlOUY1jOpPyFkPR3-t-125">
          <mxGeometry relative="1" as="geometry">
            <Array as="points">
              <mxPoint x="790" y="438" />
              <mxPoint x="790" y="130" />
              <mxPoint x="880" y="130" />
            </Array>
          </mxGeometry>
        </mxCell>
        <mxCell id="YSQlOUY1jOpPyFkPR3-t-167" value="否" style="edgeLabel;html=1;align=center;verticalAlign=middle;resizable=0;points=[];" vertex="1" connectable="0" parent="YSQlOUY1jOpPyFkPR3-t-166">
          <mxGeometry x="-0.9837" y="1" relative="1" as="geometry">
            <mxPoint y="1" as="offset" />
          </mxGeometry>
        </mxCell>
      </root>
    </mxGraphModel>
  </diagram>
</mxfile>
